<mxfile host="app.diagrams.net" modified="2023-06-03T12:01:31.639Z" agent="Mozilla/5.0 (Windows NT 10.0; Win64; x64; rv:109.0) Gecko/20100101 Firefox/112.0" etag="GtS5pkvGsrnHGNNbcOPF" version="21.2.3" type="device">
  <diagram name="Page-1" id="fNW5vXLeDswaIBUpg1E4">
    <mxGraphModel dx="1050" dy="530" grid="1" gridSize="10" guides="1" tooltips="1" connect="1" arrows="1" fold="1" page="1" pageScale="1" pageWidth="850" pageHeight="1100" math="0" shadow="0">
      <root>
        <mxCell id="0" />
        <mxCell id="1" parent="0" />
        <mxCell id="ES7W7gQ1mrgCsHO5_Tlk-8" value="" style="verticalLabelPosition=bottom;verticalAlign=top;html=1;shape=mxgraph.basic.patternFillRect;fillStyle=diag;step=5;fillStrokeWidth=0.2;fillStrokeColor=#dddddd;fillColor=#f5f5f5;fontColor=#333333;strokeColor=#666666;fontSize=14;" vertex="1" parent="1">
          <mxGeometry x="160" y="140" width="220" height="120" as="geometry" />
        </mxCell>
        <mxCell id="ES7W7gQ1mrgCsHO5_Tlk-1" value="" style="endArrow=none;dashed=1;html=1;dashPattern=1 3;strokeWidth=2;rounded=0;" edge="1" parent="1">
          <mxGeometry width="50" height="50" relative="1" as="geometry">
            <mxPoint x="420" y="600" as="sourcePoint" />
            <mxPoint x="420" y="40" as="targetPoint" />
          </mxGeometry>
        </mxCell>
        <mxCell id="ES7W7gQ1mrgCsHO5_Tlk-2" value="" style="endArrow=none;dashed=1;html=1;dashPattern=1 3;strokeWidth=2;rounded=0;" edge="1" parent="1">
          <mxGeometry width="50" height="50" relative="1" as="geometry">
            <mxPoint x="720" y="300" as="sourcePoint" />
            <mxPoint x="120" y="300" as="targetPoint" />
          </mxGeometry>
        </mxCell>
        <mxCell id="ES7W7gQ1mrgCsHO5_Tlk-6" value="message" style="edgeStyle=orthogonalEdgeStyle;rounded=0;orthogonalLoop=1;jettySize=auto;html=1;exitX=1;exitY=0.5;exitDx=0;exitDy=0;entryX=0;entryY=0.5;entryDx=0;entryDy=0;" edge="1" parent="1" source="ES7W7gQ1mrgCsHO5_Tlk-3" target="ES7W7gQ1mrgCsHO5_Tlk-4">
          <mxGeometry relative="1" as="geometry" />
        </mxCell>
        <mxCell id="ES7W7gQ1mrgCsHO5_Tlk-3" value="&lt;font style=&quot;font-size: 14px;&quot;&gt;EOA&lt;/font&gt;" style="rounded=1;whiteSpace=wrap;html=1;" vertex="1" parent="1">
          <mxGeometry x="180" y="180" width="50" height="40" as="geometry" />
        </mxCell>
        <mxCell id="ES7W7gQ1mrgCsHO5_Tlk-4" value="EOA" style="rounded=1;whiteSpace=wrap;html=1;fontSize=14;" vertex="1" parent="1">
          <mxGeometry x="310" y="180" width="50" height="40" as="geometry" />
        </mxCell>
        <mxCell id="ES7W7gQ1mrgCsHO5_Tlk-9" style="edgeStyle=orthogonalEdgeStyle;rounded=0;orthogonalLoop=1;jettySize=auto;html=1;exitX=0.5;exitY=1;exitDx=0;exitDy=0;entryX=0.5;entryY=0;entryDx=0;entryDy=0;entryPerimeter=0;" edge="1" parent="1" source="ES7W7gQ1mrgCsHO5_Tlk-5" target="ES7W7gQ1mrgCsHO5_Tlk-8">
          <mxGeometry relative="1" as="geometry" />
        </mxCell>
        <mxCell id="ES7W7gQ1mrgCsHO5_Tlk-5" value="Transaction" style="rounded=1;whiteSpace=wrap;html=1;fontSize=14;" vertex="1" parent="1">
          <mxGeometry x="210" y="60" width="120" height="40" as="geometry" />
        </mxCell>
        <mxCell id="ES7W7gQ1mrgCsHO5_Tlk-10" value="" style="verticalLabelPosition=bottom;verticalAlign=top;html=1;shape=mxgraph.basic.patternFillRect;fillStyle=diag;step=5;fillStrokeWidth=0.2;fillStrokeColor=#dddddd;fillColor=#f5f5f5;fontColor=#333333;strokeColor=#666666;fontSize=14;" vertex="1" parent="1">
          <mxGeometry x="160" y="440" width="220" height="120" as="geometry" />
        </mxCell>
        <mxCell id="ES7W7gQ1mrgCsHO5_Tlk-11" value="message" style="edgeStyle=orthogonalEdgeStyle;rounded=0;orthogonalLoop=1;jettySize=auto;html=1;exitX=1;exitY=0.5;exitDx=0;exitDy=0;entryX=0;entryY=0.5;entryDx=0;entryDy=0;" edge="1" source="ES7W7gQ1mrgCsHO5_Tlk-12" target="ES7W7gQ1mrgCsHO5_Tlk-13" parent="1">
          <mxGeometry relative="1" as="geometry" />
        </mxCell>
        <mxCell id="ES7W7gQ1mrgCsHO5_Tlk-12" value="&lt;font style=&quot;font-size: 14px;&quot;&gt;EOA&lt;/font&gt;" style="rounded=1;whiteSpace=wrap;html=1;" vertex="1" parent="1">
          <mxGeometry x="180" y="480" width="50" height="40" as="geometry" />
        </mxCell>
        <mxCell id="ES7W7gQ1mrgCsHO5_Tlk-13" value="CA" style="rounded=1;whiteSpace=wrap;html=1;fontSize=14;" vertex="1" parent="1">
          <mxGeometry x="310" y="480" width="50" height="40" as="geometry" />
        </mxCell>
        <mxCell id="ES7W7gQ1mrgCsHO5_Tlk-14" style="edgeStyle=orthogonalEdgeStyle;rounded=0;orthogonalLoop=1;jettySize=auto;html=1;exitX=0.5;exitY=1;exitDx=0;exitDy=0;entryX=0.5;entryY=0;entryDx=0;entryDy=0;entryPerimeter=0;" edge="1" source="ES7W7gQ1mrgCsHO5_Tlk-15" target="ES7W7gQ1mrgCsHO5_Tlk-10" parent="1">
          <mxGeometry relative="1" as="geometry" />
        </mxCell>
        <mxCell id="ES7W7gQ1mrgCsHO5_Tlk-15" value="Transaction" style="rounded=1;whiteSpace=wrap;html=1;fontSize=14;" vertex="1" parent="1">
          <mxGeometry x="210" y="360" width="120" height="40" as="geometry" />
        </mxCell>
        <mxCell id="ES7W7gQ1mrgCsHO5_Tlk-16" value="" style="verticalLabelPosition=bottom;verticalAlign=top;html=1;shape=mxgraph.basic.patternFillRect;fillStyle=diag;step=5;fillStrokeWidth=0.2;fillStrokeColor=#dddddd;fillColor=#f5f5f5;fontColor=#333333;strokeColor=#666666;fontSize=14;" vertex="1" parent="1">
          <mxGeometry x="480" y="60" width="220" height="200" as="geometry" />
        </mxCell>
        <mxCell id="ES7W7gQ1mrgCsHO5_Tlk-17" value="message" style="edgeStyle=orthogonalEdgeStyle;rounded=0;orthogonalLoop=1;jettySize=auto;html=1;exitX=1;exitY=0.5;exitDx=0;exitDy=0;entryX=0;entryY=0.5;entryDx=0;entryDy=0;" edge="1" source="ES7W7gQ1mrgCsHO5_Tlk-18" target="ES7W7gQ1mrgCsHO5_Tlk-19" parent="1">
          <mxGeometry relative="1" as="geometry" />
        </mxCell>
        <mxCell id="ES7W7gQ1mrgCsHO5_Tlk-18" value="&lt;font style=&quot;font-size: 14px;&quot;&gt;CA&lt;/font&gt;" style="rounded=1;whiteSpace=wrap;html=1;" vertex="1" parent="1">
          <mxGeometry x="500" y="90" width="50" height="40" as="geometry" />
        </mxCell>
        <mxCell id="ES7W7gQ1mrgCsHO5_Tlk-19" value="EOA" style="rounded=1;whiteSpace=wrap;html=1;fontSize=14;" vertex="1" parent="1">
          <mxGeometry x="630" y="190" width="50" height="40" as="geometry" />
        </mxCell>
        <mxCell id="ES7W7gQ1mrgCsHO5_Tlk-20" value="" style="verticalLabelPosition=bottom;verticalAlign=top;html=1;shape=mxgraph.basic.patternFillRect;fillStyle=diag;step=5;fillStrokeWidth=0.2;fillStrokeColor=#dddddd;fillColor=#f5f5f5;fontColor=#333333;strokeColor=#666666;fontSize=14;" vertex="1" parent="1">
          <mxGeometry x="480" y="360" width="220" height="200" as="geometry" />
        </mxCell>
        <mxCell id="ES7W7gQ1mrgCsHO5_Tlk-21" value="message" style="edgeStyle=orthogonalEdgeStyle;rounded=0;orthogonalLoop=1;jettySize=auto;html=1;exitX=1;exitY=0.5;exitDx=0;exitDy=0;entryX=0;entryY=0.5;entryDx=0;entryDy=0;" edge="1" source="ES7W7gQ1mrgCsHO5_Tlk-22" target="ES7W7gQ1mrgCsHO5_Tlk-23" parent="1">
          <mxGeometry relative="1" as="geometry" />
        </mxCell>
        <mxCell id="ES7W7gQ1mrgCsHO5_Tlk-22" value="&lt;font style=&quot;font-size: 14px;&quot;&gt;CA&lt;/font&gt;" style="rounded=1;whiteSpace=wrap;html=1;" vertex="1" parent="1">
          <mxGeometry x="510" y="390" width="50" height="40" as="geometry" />
        </mxCell>
        <mxCell id="ES7W7gQ1mrgCsHO5_Tlk-23" value="CA" style="rounded=1;whiteSpace=wrap;html=1;fontSize=14;" vertex="1" parent="1">
          <mxGeometry x="630" y="490" width="50" height="40" as="geometry" />
        </mxCell>
        <mxCell id="ES7W7gQ1mrgCsHO5_Tlk-25" value="&lt;font style=&quot;font-size: 14px;&quot;&gt;code&lt;/font&gt;" style="whiteSpace=wrap;html=1;shape=mxgraph.basic.document" vertex="1" parent="1">
          <mxGeometry x="520" y="120" width="40" height="30" as="geometry" />
        </mxCell>
        <mxCell id="ES7W7gQ1mrgCsHO5_Tlk-26" value="&lt;font style=&quot;font-size: 14px;&quot;&gt;code&lt;/font&gt;" style="whiteSpace=wrap;html=1;shape=mxgraph.basic.document" vertex="1" parent="1">
          <mxGeometry x="530" y="420" width="40" height="30" as="geometry" />
        </mxCell>
      </root>
    </mxGraphModel>
  </diagram>
</mxfile>
